<?xml version="1.0"?>
<svg xmlns="http://www.w3.org/2000/svg" xmlns:xlink="http://www.w3.org/1999/xlink" xmlns:svgjs="http://svgjs.com/svgjs" version="1.1" width="512" height="512" x="0" y="0" viewBox="0 0 511.951 511.951" style="enable-background:new 0 0 512 512" xml:space="preserve" class=""><g transform="matrix(-1.8369701987210297e-16,-1,1,-1.8369701987210297e-16,0.0003404617310991398,511.949933052063)"><g xmlns="http://www.w3.org/2000/svg"><path d="m462.816 49.117c-65.51-65.49-172.09-65.49-237.6 0-52.99 53.01-64.39 134.39-28.53 199.63-4.015 7.742-2.979 17.754 3.81 24.56l38.13 38.13c6.807 6.79 16.82 7.824 24.56 3.81 63.157 34.663 144.948 26.151 199.63-28.53 65.491-65.509 65.491-172.089 0-237.6zm-28.289 209.311c-49.911 49.911-131.118 49.902-181.02 0-49.91-49.91-49.91-131.11 0-181.02 49.911-49.911 131.118-49.902 181.02 0 49.909 49.909 49.909 131.11 0 181.02z"  data-original="#000000" style="" class=""/><path d="m181.38 299.441 31.112 31.112c.781.781 2.047.781 2.828 0l8.482-8.482c.781-.781.781-2.047 0-2.828l-31.111-31.12c-.781-.781-2.048-.781-2.829 0l-8.483 8.49c-.78.781-.78 2.047.001 2.828z" data-original="#000000" style="" class=""/><path d="m162.996 303.678c-3.121-3.121-8.203-3.117-11.32 0-149.501 149.522-140.24 140.252-140.62 140.639-7.02 7.366-11.04 17.209-11.04 27.6 0 27.11 26.62 46.57 52.58 37.98 6.371-2.104 12.055-5.84 16.28-10.28l139.38-139.36c3.12-3.12 3.117-8.203 0-11.32z" data-original="#000000" style="" class=""/></g></g></svg>
